#!OML:ASF F:\VICON\USERDATA\INSTALL\Justin_Nancy\Justin_Nancy.ASF
:FULLY-SPECIFIED
:DEGREES
188
root -5.92468 17.0076 5.89099 -79.5879 -78.4067 83.9437
lowerback 10.3741 -0.860722 -10.4272
upperback -0.28258 -2.45147 0.0347789
thorax -5.71448 -0.912361 6.28252
lowerneck -19.6608 -2.70652 -9.78946
upperneck 22.3769 -2.18517 5.00396
head 10.6154 -1.29542 3.09788
rclavicle 4.67144e-014 -6.36111e-015
rhumerus -46.7964 -18.8175 -71.0824
rradius 30.5558
rwrist 9.89398
rhand -17.2419 10.0561
rfingers 7.12502
rthumb 9.00196 -19.7318
lclavicle 4.67144e-014 -6.36111e-015
lhumerus -26.603 12.5058 76.3931
lradius 42.1102
lwrist 3.61428
lhand -22.8843 23.1042
lfingers 7.12502
lthumb 3.55486 53.0543
rfemur -40.366 0.196488 15.4446
rtibia 40.6849
rfoot -6.61558 -7.40122
rtoes 25.1182
lfemur 3.03089 -1.50198 -32.7686
ltibia 19.6681
lfoot -19.6543 -8.05326
ltoes 1.23429
189
root -6.13866 17.0061 5.92008 -77.1293 -79.0732 81.7532
lowerback 10.2562 -1.02092 -9.92108
upperback -0.348292 -2.56986 0.30501
thorax -5.70236 -0.977177 6.29904
lowerneck -19.3769 -2.72823 -9.64862
upperneck 22.1106 -2.26234 4.92711
head 10.4682 -1.32482 3.0305
rclavicle -2.3059e-014 -4.69132e-014
rhumerus -46.663 -19.612 -70.6458
rradius 30.5286
rwrist 9.80549
rhand -16.2268 10.2496
rfingers 7.12502
rthumb 9.98137 -19.4938
lclavicle -2.3059e-014 -4.69132e-014
lhumerus -26.2882 12.4221 76.6561
lradius 42.0402
lwrist 2.92516
lhand -22.7373 22.7279
lfingers 7.12502
lthumb 3.69683 52.6756
rfemur -39.9889 0.977769 15.8379
rtibia 36.0478
rfoot -5.68904 -9.06719
rtoes 25.9194
lfemur 3.39564 -1.319 -31.9129
ltibia 19.7949
lfoot -19.7057 -8.81581
ltoes 1.85628
190
root -6.36538 17.0025 5.95389 -74.5015 -79.6793 79.4911
lowerback 9.89347 -1.13922 -9.33438
upperback -0.401251 -2.60715 0.442594
thorax -5.5627 -1.0149 6.10448
lowerneck -19.7118 -2.7665 -10.0391
upperneck 22.5598 -2.32166 5.48895
head 10.7115 -1.3247 3.30028
rclavicle 3.53837e-014 -4.6118e-014
rhumerus -46.6558 -20.9478 -70.0991
rradius 30.4559
rwrist 10.2893
rhand -15.0979 10.3925
rfingers 7.12502
rthumb 11.0703 -19.2956
lclavicle 3.53837e-014 -4.6118e-014
lhumerus -25.9486 12.1654 76.8106
lradius 41.9196
lwrist 2.53805
lhand -22.438 22.133
lfingers 7.12502
lthumb 3.98578 52.0754
rfemur -39.6903 1.63541 16.0934
rtibia 31.7581
rfoot -5.39654 -10.23
rtoes 26.5472
lfemur 4.02621 -0.409348 -30.9086
ltibia 19.2243
lfoot -19.3853 -10.6014
ltoes 3.20428
191
root -6.60325 16.9847 5.99959 -73.0222 -79.8357 78.2555
lowerback 9.50042 -1.30805 -9.15258
upperback -0.391851 -2.76072 0.549356
thorax -5.30572 -1.1077 6.1164
lowerneck -19.6232 -2.776 -10.2528
upperneck 22.3757 -2.2853 5.55405
head 10.6281 -1.3147 3.36169
rclavicle -1.98785e-016 -1.43125e-014
rhumerus -46.3141 -21.4797 -69.7988
rradius 30.1682
rwrist 10.809
rhand -14.8391 10.5456
rfingers 7.12502
rthumb 11.3199 -19.1289
lclavicle -1.98785e-016 -1.43125e-014
lhumerus -25.8025 12.2664 77.0877
lradius 41.8278
lwrist 2.12726
lhand -22.2266 21.726
lfingers 7.12502
lthumb 4.18992 51.6645
rfemur -39.6063 1.63154 16.1683
rtibia 28.4587
rfoot -5.51289 -10.416
rtoes 23.1412
lfemur 5.56816 0.038398 -30.5991
ltibia 17.3679
lfoot -18.5645 -11.6034
ltoes 2.32784
192
root -6.86965 16.9408 6.07778 -76.0181 -78.2948 80.9075
lowerback 9.35391 -1.20156 -10.507
upperback -0.199916 -2.78039 0.0705082
thorax -4.98287 -1.11714 6.35945
lowerneck -18.684 -2.89297 -8.98507
upperneck 21.3117 -2.56535 4.23439
head 10.0572 -1.4797 2.61668
rclavicle 3.75703e-014 -9.54166e-015
rhumerus -45.9948 -21.4611 -69.7699
rradius 29.825
rwrist 10.5812
rhand -15.2831 10.4021
rfingers 7.12502
rthumb 10.8917 -19.2954
lclavicle 3.75703e-014 -9.54166e-015
lhumerus -25.6802 12.135 77.5285
lradius 41.6779
lwrist 1.75103
lhand -21.7798 21.4676
lfingers 7.12502
lthumb 4.6214 51.3972
rfemur -38.396 0.620156 14.8063
rtibia 24.5001
rfoot -4.93775 -9.1846
rtoes 13.5737
lfemur 7.21107 -0.435967 -32.7482
ltibia 17.1257
lfoot -18.793 -11.0734
ltoes 0.989431
